<svg width="320" height="420" viewBox="0 0 320 420" fill="none" xmlns="http://www.w3.org/2000/svg">
<path d="M153.419 359.951C154.379 356.591 155.628 352.951 157.084 349.093L161.721 360.43H180.791L171.291 315C184.535 283.259 197.544 246.137 186.111 215.398C182.214 200.214 180.203 188.07 179.445 178.5C179.725 178.78 179.954 178.976 180.105 178.937C181.139 178.671 182.491 178.696 181.598 175.672C181.234 174.432 180.136 172.676 180.15 172.511C180.198 171.923 183.057 177.78 183.211 177.906C185.927 180.163 186.688 178.573 186.265 176.263C186.702 177.307 187.15 178.223 187.724 178.783C189.474 180.463 190.897 178.461 189.964 175.448C187.612 167.916 183.183 166.191 179.173 165.981C179.573 157.497 181.312 152.373 183.303 149.836C184.983 147.683 192.918 139.037 194.783 136.657C194.783 136.657 192.675 134.067 190.023 130.875C195.256 121.73 200.24 112.174 201.147 110.256C202.609 107.162 206.862 99.9908 210.609 93.7356C215.685 85.2544 219.289 77.2296 224.147 68.8156C227.165 63.5796 227.271 53.34 225.793 47.0708C223.435 37.0748 220.305 38.0968 219.994 37.4136V37.3968C218.846 33.0876 217.726 28.9072 217.474 27.9048C215.973 21.84 213.381 21.6496 210.614 22.1424C208.268 22.5596 206.428 22.9824 204.191 23.2008C200.921 23.5004 199.131 24.3208 200.333 29.0388C201.355 33.0736 204.253 43.6464 205.571 47.8688C206.162 49.7644 206.325 49.9044 206.411 50.6688C206.815 51.9988 207.445 52.9788 208.324 53.606C209.108 54.7848 210.623 56.5432 213.627 59.5168C215.531 61.404 216.329 64.708 210.961 72.7076C204.418 82.4628 195.001 96.1632 193.229 99.932C192.031 102.469 184.501 113.232 179.873 119.361C179.817 119.314 179.764 119.269 179.716 119.235C178.966 118.661 173.691 129.315 166.066 129.741C165.301 129.79 164.539 129.883 163.784 130.021L163.751 129.892L163.709 129.735L163.583 129.262C163.566 129.2 163.549 129.139 163.535 129.08L163.451 128.761L163.401 128.565L163.325 128.257C163.308 128.19 163.289 128.12 163.272 128.05C163.255 127.98 163.224 127.848 163.199 127.747L163.149 127.537C163.123 127.436 163.101 127.333 163.076 127.232C163.051 127.131 163.045 127.098 163.028 127.03C163.003 126.918 162.981 126.809 162.955 126.7C162.955 126.641 162.927 126.582 162.916 126.526C162.888 126.392 162.857 126.263 162.832 126.132L162.807 126.022L162.706 125.524C162.706 125.49 162.706 125.457 162.687 125.42C162.661 125.294 162.636 125.166 162.614 125.04C162.614 124.984 162.594 124.933 162.583 124.877C162.566 124.774 162.547 124.667 162.53 124.561C162.53 124.505 162.51 124.446 162.499 124.387C162.488 124.328 162.468 124.194 162.454 124.107C162.44 124.02 162.435 123.99 162.426 123.931C162.418 123.872 162.401 123.746 162.39 123.651C162.379 123.556 162.373 123.539 162.367 123.486C162.362 123.432 162.345 123.301 162.334 123.206L162.317 123.057C162.317 122.956 162.309 122.858 162.292 122.763V122.657C162.292 122.525 162.272 122.399 162.269 122.276C162.271 122.262 162.271 122.248 162.269 122.234C162.269 122.128 162.269 122.024 162.269 121.926C162.269 121.89 162.269 121.853 162.269 121.817C162.269 121.78 162.269 121.671 162.269 121.604C162.269 121.537 162.269 121.526 162.269 121.486L162.286 121.31L162.303 121.198C162.303 121.145 162.32 121.094 162.331 121.044C162.342 120.994 162.345 120.98 162.351 120.949C162.356 120.918 162.379 120.856 162.393 120.814C162.4 120.787 162.41 120.76 162.421 120.733C162.437 120.692 162.456 120.652 162.477 120.613C162.477 120.593 162.496 120.574 162.507 120.557C162.537 120.507 162.572 120.46 162.614 120.42C166.492 116.64 166.892 109.71 165.299 103.303C170.235 102.214 168.83 91.6776 168.83 91.6776L163.378 93.968C161.267 75.8884 142.412 76.23 136.456 88.8244C132.256 97.72 127.642 117.051 106.079 133.515C105.152 134.224 115 139.874 125.615 145.622C121.415 152.306 119.158 161.445 116.425 172.998L117.427 172.897C117.105 173.914 116.741 175.101 116.38 176.394C109.904 189.493 100.031 216.115 96.4413 228.242C89.3349 235.945 76.2589 282.694 75.7073 287.465C75.4945 289.318 92.3813 293.905 94.0333 294.661C101.263 298.021 122.742 303.341 130.411 306.009C130.764 306.132 132.253 301.879 134.152 295.901C134.894 297.301 135.608 298.612 136.283 299.86L136.451 300.177C137.781 302.641 138.948 304.797 139.839 306.508L139.892 306.606C140.256 307.306 140.569 307.925 140.833 308.465C140.886 308.574 140.939 308.68 140.987 308.781C141.034 308.882 141.113 309.061 141.169 309.17L141.267 309.386C141.381 309.644 141.477 309.873 141.547 310.061L132.522 359.971H153.407L153.419 359.951ZM105.015 228.273L116.411 195.138C119.438 198.324 128.336 193.472 131.234 190.938C129.989 197.987 128.088 204.905 125.556 211.602L125.393 212.019V212.05C125.343 212.181 125.295 212.307 125.245 212.433L125.231 212.47C125.186 212.587 125.139 212.705 125.097 212.817L125.074 212.867L124.951 213.181L124.929 213.234C124.889 213.332 124.853 213.427 124.814 213.514L124.791 213.57L124.688 213.828L124.665 213.881L124.567 214.116L124.551 214.161L124.478 214.334C121.106 219.75 118.726 225.724 117.45 231.974C112.824 230.516 108.484 229.174 105.015 228.273Z" fill="white"/>
<path d="M194.881 393.378L193.162 393.361C193.26 394.716 194.184 393.778 194.881 393.378Z" fill="white"/>
<path d="M197.983 393.4L195.567 393.38C195.585 393.413 195.599 393.448 195.609 393.484C196.079 395.08 197.143 394.013 197.983 393.4Z" fill="white"/>
<path d="M197.983 393.4H199.056C198.879 392.854 198.47 393.05 197.983 393.4Z" fill="white"/>
<path d="M201.59 394.19C201.856 393.96 202.103 393.71 202.329 393.442L199.056 393.414C199.056 393.45 199.078 393.49 199.089 393.534C199.168 393.901 201.013 394.738 201.59 394.19Z" fill="white"/>
<path d="M193.162 393.358C193.125 392.862 192.764 393.025 192.296 393.358H193.162Z" fill="white"/>
<path d="M194.881 393.378H195.567C195.438 393.12 195.18 393.204 194.881 393.378Z" fill="white"/>
<path d="M129.753 394.181C131.234 393.431 129.798 395.828 133.286 394.064C134.748 393.324 133.522 396.62 137.747 393.977C138.867 393.285 138.928 396.186 142.753 393.442C143.716 392.75 142.605 395.282 146.55 393.607C148.692 392.697 146.665 395.828 151.078 393.52C153.771 392.12 151.148 396.194 156.07 393.7C158.064 392.689 156.221 395.78 159.881 393.862C161.233 393.156 160.796 396.063 163.437 394.125C164.277 393.501 163.552 396.147 166.34 393.565C167.334 392.638 167.561 393.828 169.79 393.714C170.01 393.72 170.228 393.748 170.442 393.798C171.98 396.483 172.78 393.238 173.878 394.568C174.841 395.735 176.23 393.529 176.821 394.288C177.84 395.601 178.518 393.075 179.573 394.08C181.099 395.531 182.233 392.423 182.958 393.882C183.88 395.732 185.072 392.176 186.274 394.136C187.584 396.27 189.102 391.86 190.146 394.136C190.488 394.884 191.532 393.901 192.296 393.364L156.736 393.047L168.443 392.899C169.322 392.899 170.182 392.899 170.994 392.868L202.239 392.473C201.64 389.704 200.688 384.44 197.79 384.44H197.16C200.495 382.337 192.38 374.553 189.261 372.848C181.701 368.707 182.995 362.354 174.788 369.942C170.361 374.035 167.808 362.102 162.686 365.543C159.906 367.416 158.862 369.505 158.388 371.423C158.075 371.16 157.744 370.882 157.397 370.583C148.572 362.981 150.84 368.623 147.975 370.695L149.82 359.974C149.501 361.119 148.196 368.278 147.905 370.742C147.281 371.151 146.552 371.372 145.805 371.378C136.151 371.815 137.8 366.094 134.972 364.683C135.65 362.407 136.316 360.156 136.35 359.974L134.95 364.678C134.486 364.463 133.979 364.358 133.468 364.372C131.27 364.372 129.232 367.864 127.835 371.692L127.048 371.762C127.25 371.932 127.446 372.086 127.642 372.235C126.597 375.242 125.962 378.364 125.962 380.094C125.962 381.147 125.514 382.077 125.514 383.855C122.392 384.695 118.95 392.739 121.017 392.739C122.912 392.739 124.833 392.762 126.765 392.792L121.017 392.739C121.342 393.658 122.658 394.996 124.077 393.915C124.973 393.215 125.035 396.578 129.753 394.181ZM188.962 384.404L172.82 384.353C178.778 384.269 185.212 384.216 188.962 384.404Z" fill="white"/>
<path d="M224.639 69.0928C227.68 63.8176 227.893 53.4828 226.347 46.9308C224.387 38.6316 221.797 37.6124 220.691 37.1784L220.492 37.0972C220.246 36.1676 219.999 35.252 219.767 34.3784C218.927 31.2396 218.21 28.5292 218.02 27.7592C216.547 21.784 213.96 20.9664 210.513 21.5768C209.861 21.6916 209.245 21.8092 208.648 21.924C207.158 22.2352 205.652 22.4707 204.137 22.6296C202.231 22.8032 200.794 23.1532 199.991 24.2872C199.26 25.3232 199.19 26.88 199.775 29.1816C200.811 33.264 203.695 43.7668 205.022 48.0396C205.263 48.8152 205.434 49.2996 205.56 49.6552C205.698 50.0004 205.792 50.3617 205.84 50.7304L205.859 50.8256C206.291 52.2368 206.968 53.2905 207.892 53.9868C208.732 55.2132 210.258 56.98 213.212 59.9144C214.663 61.3508 215.956 64.204 210.474 72.3772C209.317 74.102 208.069 75.95 206.792 77.8456C200.881 86.604 194.192 96.5328 192.699 99.6856C191.579 102.057 184.358 112.42 179.702 118.619C179.831 118.641 179.952 118.695 180.055 118.776L180.209 118.902C180.332 119.006 180.472 119.137 180.631 119.288C185.232 113.165 192.501 102.796 193.738 100.176C195.183 97.1152 201.858 87.2256 207.738 78.498C209.018 76.6024 210.258 74.7544 211.423 73.0268C216.018 66.178 216.819 61.8856 214.013 59.108C212.157 57.2712 210.897 55.9216 210.029 54.908C209.805 54.6448 209.606 54.4012 209.432 54.18C209.152 53.8076 208.912 53.4912 208.732 53.2196C208.486 52.8607 208.288 52.471 208.144 52.0604C207.453 49.9604 207.847 49.5992 207.85 49.5964C207.894 49.5724 207.944 49.5617 207.993 49.5656C208.273 49.5656 208.864 49.7364 209.925 50.5092C210.435 50.8905 210.923 51.2999 211.387 51.7356C212.168 52.4412 212.927 53.1356 213.943 53.466C214.439 53.6312 214.96 53.7089 215.483 53.6956C215.859 53.6891 216.234 53.6488 216.603 53.5752C217.052 53.4781 217.484 53.3159 217.886 53.0936C218.379 52.8248 218.848 52.5118 219.286 52.1584C219.701 51.8275 220.092 51.4673 220.456 51.0804C221.52 49.9156 221.623 47.572 221.391 45.1024C221.223 43.3132 220.882 41.4624 220.599 39.928L220.531 39.5724L220.478 39.2924C220.418 38.9687 220.378 38.6413 220.361 38.3124C220.529 38.378 220.693 38.4547 220.851 38.542C221.948 39.1524 223.707 40.8548 225.207 47.222C226.708 53.5892 226.524 63.5124 223.623 68.544C221.383 72.408 219.403 76.244 217.463 79.9568C215.184 84.3416 212.826 88.8748 210.082 93.4584C206 100.279 202.024 107.008 200.596 110.032C199.683 111.964 194.889 121.134 189.899 129.892L190.291 130.362L190.683 130.833C195.765 121.94 200.705 112.49 201.631 110.522C203.031 107.542 206.999 100.845 211.067 94.0492C213.828 89.4348 216.194 84.8848 218.482 80.486C220.434 76.762 222.424 72.9344 224.639 69.0928Z" fill="black"/>
<path d="M130.439 306.566C130.584 306.565 130.725 306.516 130.839 306.426C131.08 306.244 131.55 305.886 134.297 297.346L133.922 296.643L133.544 295.938C131.438 302.554 130.587 304.676 130.248 305.32C127.264 304.304 122.425 302.926 117.315 301.47C108.596 298.99 98.7148 296.178 94.2852 294.12C93.812 293.899 92.3252 293.434 90.2644 292.793C87.7304 292.001 84.2556 290.917 81.422 289.881C77.1632 288.324 76.424 287.624 76.298 287.44C76.6368 284.858 80.4588 270.402 85.1768 256.004C89.7604 242.018 92.9244 234.923 94.9992 231.339C95.3744 230.689 95.7132 230.157 96.0184 229.72C96.3027 229.303 96.6172 228.907 96.9592 228.536C97.5192 227.948 97.8832 227.774 98.1016 227.735C99.1376 227.545 101.347 227.931 104.262 228.67L104.822 228.816L105.382 228.962C108.621 229.827 112.586 231.048 116.755 232.378C116.792 232.19 116.834 232.002 116.873 231.818C116.912 231.633 116.951 231.442 116.993 231.258C112.835 229.933 108.963 228.738 105.754 227.898L116.674 196.123C117.216 196.451 117.823 196.658 118.452 196.731C118.73 196.767 119.011 196.785 119.292 196.784C122.778 196.784 127.611 194.326 130.391 192.34C130.444 192.06 130.495 191.78 130.542 191.5C130.59 191.22 130.643 190.94 130.694 190.66C128.28 192.685 122.184 196.067 118.603 195.591C118.045 195.536 117.512 195.329 117.063 194.992C116.894 194.857 116.743 194.699 116.615 194.524C116.59 194.488 116.559 194.454 116.534 194.415C116.425 194.247 116.321 194.074 116.226 193.892C113.936 189.616 115.411 182.064 116.929 176.576C117.226 175.512 117.522 174.524 117.791 173.653C117.816 173.58 117.839 173.505 117.861 173.432L117.24 173.494H117.223L116.618 173.552C116.372 174.353 116.108 175.232 115.848 176.156C111.203 185.545 105.51 200.516 103.598 205.649C101.215 212.027 97.8188 221.556 95.9232 227.948C94.82 229.188 93.336 231.571 91.3088 236.152C89.164 240.996 86.7308 247.559 84.0736 255.665C79.4284 269.839 75.4496 284.687 75.136 287.395C74.9736 288.817 78.286 290.276 89.9116 293.905C91.7764 294.487 93.3836 294.988 93.7896 295.176C98.3004 297.276 108.229 300.101 116.988 302.593C122.308 304.102 127.308 305.53 130.22 306.547C130.291 306.567 130.365 306.574 130.439 306.566ZM104.707 205.971C107.694 197.96 111.326 188.826 114.56 181.65C113.644 186.536 113.44 191.73 115.593 195.026C115.649 195.11 115.708 195.185 115.767 195.261L104.645 227.587C101.49 226.792 99.0928 226.386 97.8944 226.604C97.7635 226.629 97.6351 226.665 97.5108 226.713C99.0536 221.724 101.506 214.544 104.707 205.971Z" fill="black"/>
<path d="M166.612 327.496C163.364 335.09 160.231 342.415 157.702 349.087L162.107 359.853H180.08L171.12 316.921C169.597 320.519 168.085 324.052 166.612 327.496Z" fill="black"/>
<path d="M185.708 215.967H124.153C121.315 220.822 119.271 226.099 118.099 231.599L117.982 232.159C117.942 232.35 117.9 232.537 117.864 232.719C116.002 242.376 116.677 252.826 119.972 263.474C122.879 272.857 128.932 284.796 134.028 294.395L134.406 295.106C134.532 295.341 134.658 295.579 134.784 295.812C135.669 297.466 136.52 299.043 137.304 300.51C139.052 303.747 140.457 306.351 141.317 308.104L148.44 268.8C148.863 265.675 147.25 263.452 145.228 260.716L145.178 260.646L144.8 260.12L144.369 259.529C141.448 255.489 138.161 250.009 139.304 239.462C139.323 239.271 139.346 239.081 139.368 238.888C139.39 238.694 139.418 238.504 139.444 238.311C139.637 236.866 139.908 235.337 140.284 233.702L141.404 233.954C141.031 235.617 140.757 237.166 140.564 238.622C140.538 238.812 140.51 239.008 140.488 239.182C140.466 239.355 140.446 239.565 140.426 239.756C139.458 248.881 141.916 253.926 144.562 257.785C144.719 258.014 144.876 258.238 145.032 258.46C145.189 258.681 145.377 258.938 145.548 259.171L146.108 259.932C148.068 262.598 149.812 264.953 149.658 268.162H149.72L149.594 268.867C149.554 269.164 149.498 269.472 149.426 269.786L133.228 359.349H152.996C153.92 356.163 155.11 352.716 156.479 349.079L156.776 348.289C156.874 348.032 156.977 347.768 157.075 347.508C159.531 341.124 162.496 334.191 165.565 327.018C167.245 323.098 168.975 319.04 170.7 314.91C170.832 314.6 170.96 314.286 171.092 313.975L171.481 313.034C184.428 281.8 196.634 245.907 185.708 215.967Z" fill="black"/>
<path d="M126.824 395.64C127.614 395.64 128.647 395.396 130.013 394.702L130.148 394.64C130.755 395.542 131.676 395.525 133.544 394.582C133.568 394.568 133.593 394.557 133.62 394.548C133.653 394.59 133.695 394.654 133.726 394.702C134.443 395.78 135.406 396.119 138.052 394.47L138.088 394.447C138.187 394.501 138.28 394.563 138.368 394.632C139.248 395.259 140.396 395.777 142.902 394.038C143.397 394.758 144.274 395.198 146.763 394.139C146.9 394.069 147.049 394.028 147.202 394.016C147.241 394.065 147.276 394.117 147.309 394.17C147.894 395.111 148.742 395.388 151.332 394.036C151.527 393.914 151.744 393.832 151.971 393.795C152.014 393.868 152.052 393.944 152.086 394.022C152.164 394.245 152.289 394.45 152.453 394.621C152.616 394.793 152.815 394.927 153.035 395.016C153.735 395.256 154.748 395.016 156.319 394.218C156.428 394.158 156.544 394.111 156.664 394.078C156.683 394.114 156.706 394.162 156.725 394.195C156.799 394.384 156.912 394.554 157.057 394.696C157.202 394.837 157.375 394.946 157.565 395.016C158.142 395.203 158.934 395.016 160.133 394.377C160.172 394.357 160.212 394.341 160.253 394.327C160.35 394.403 160.437 394.492 160.511 394.59C161.127 395.324 161.911 395.842 163.546 394.747C163.629 394.888 163.743 395.01 163.878 395.103C164.014 395.196 164.168 395.258 164.33 395.284C164.926 395.371 165.64 394.979 166.718 393.977C166.998 393.719 167.015 393.725 167.502 393.907C168.233 394.202 169.02 394.33 169.807 394.279C169.894 394.276 169.981 394.287 170.064 394.31C170.47 394.954 170.888 395.31 171.358 395.43C171.977 395.581 172.478 395.262 172.842 395.027C172.976 394.937 173.12 394.862 173.27 394.803C173.27 394.803 173.321 394.803 173.413 394.929C174.253 395.956 175.351 395.315 175.933 394.968C176.084 394.874 176.242 394.79 176.404 394.716C176.617 394.998 176.931 395.187 177.28 395.242C177.815 395.304 178.226 394.962 178.557 394.713C179.002 394.358 179.022 394.377 179.15 394.498C180.31 395.601 181.39 394.794 181.987 394.36C182.115 394.259 182.25 394.165 182.39 394.08L182.418 394.131C182.496 394.33 182.618 394.509 182.774 394.654C182.931 394.8 183.118 394.908 183.322 394.971C183.882 395.108 184.358 394.764 184.773 394.458C184.986 394.304 185.308 394.069 185.439 394.094C185.462 394.094 185.576 394.134 185.758 394.43C185.868 394.645 186.024 394.833 186.215 394.981C186.405 395.129 186.626 395.234 186.862 395.287C187.562 395.408 188.144 394.929 188.656 394.509C188.865 394.31 189.105 394.147 189.368 394.027C189.368 394.027 189.463 394.078 189.594 394.369C189.654 394.506 189.744 394.628 189.858 394.725C189.972 394.823 190.107 394.892 190.252 394.929C190.891 395.088 191.568 394.582 192.212 394.089C192.327 394.002 192.473 393.893 192.607 393.809C192.637 393.965 192.701 394.112 192.794 394.241C192.887 394.369 193.008 394.475 193.148 394.551C193.708 394.831 194.268 394.442 194.769 394.106C194.861 394.044 194.99 393.957 195.099 393.89C195.163 394.104 195.275 394.3 195.427 394.464C195.578 394.628 195.765 394.755 195.973 394.836C196.698 395.072 197.387 394.556 197.997 394.08C198.148 393.966 198.35 393.8 198.504 393.716C198.703 394.344 199.826 394.719 200.055 394.792C200.895 395.049 201.545 394.985 201.945 394.607L202.046 394.512C202.626 393.977 202.763 393.823 202.83 393.638L201.752 393.246C201.764 393.21 201.781 393.176 201.802 393.145C201.73 393.24 201.38 393.562 201.265 393.669L201.158 393.77C200.92 393.918 199.887 393.576 199.585 393.308C199.563 393.226 199.534 393.146 199.498 393.07L202.922 393.028L202.642 391.79C202.038 388.99 201.049 384.448 198.297 383.911C198.314 383.869 198.333 383.827 198.347 383.782C199.529 380.422 192.266 373.85 189.488 372.333C187.114 371.034 185.63 369.499 184.448 368.267C183.082 366.867 182.004 365.859 180.59 365.831L179.75 361.004L179.649 360.444L179.632 360.346L179.072 360.444L178.512 360.542L178.593 361.018L179.461 366.013C178.176 366.4 176.58 367.475 174.368 369.524C173.825 370.026 173.315 370.258 172.811 370.236C171.708 370.182 170.596 368.939 169.415 367.626C168.295 366.36 166.973 364.904 165.43 364.465L164.473 361.018L164.313 360.458L164.271 360.304L163.711 360.458L163.151 360.609L163.266 361.032L164.193 364.361C163.518 364.44 162.873 364.689 162.32 365.084C160.152 366.545 158.772 368.259 158.041 370.42L157.728 370.154C154.135 367.058 152.128 365.915 150.795 366.204C149.798 366.422 149.378 367.324 148.972 368.222C148.896 368.393 148.818 368.564 148.734 368.732C149.171 365.994 149.888 362.043 150.226 360.553C150.266 360.38 150.302 360.234 150.33 360.133L149.77 359.979L149.21 359.825C149.21 359.867 149.185 359.92 149.171 359.979C149.132 360.125 149.09 360.321 149.039 360.539C148.58 362.662 147.622 367.99 147.312 370.387C146.821 370.648 146.275 370.789 145.718 370.798C139.488 371.078 138.307 368.76 137.262 366.713C136.826 365.856 136.378 364.983 135.582 364.417C136.179 362.41 136.546 361.164 136.722 360.539C136.798 360.273 136.84 360.119 136.848 360.069L136.305 359.965L135.72 359.853C135.712 359.891 135.703 359.928 135.692 359.965C135.661 360.083 135.605 360.282 135.529 360.525C135.311 361.284 134.93 362.564 134.53 363.913C134.164 363.819 133.787 363.773 133.41 363.776C130.89 363.776 128.742 367.416 127.286 371.386L126.62 372.179C126.72 372.266 126.821 372.347 126.922 372.428C125.911 375.46 125.329 378.501 125.329 380.072C125.312 380.501 125.255 380.928 125.158 381.346C125.007 382.031 124.914 382.726 124.878 383.426C122.165 384.605 119.477 389.953 119.765 392.132C119.777 392.369 119.856 392.598 119.994 392.792C120.132 392.985 120.323 393.135 120.544 393.224C120.902 393.953 121.534 394.512 122.302 394.778C122.63 394.875 122.975 394.894 123.311 394.834C123.648 394.775 123.966 394.637 124.24 394.433C124.284 394.475 124.338 394.526 124.38 394.57C124.682 394.92 125.058 395.197 125.481 395.382C125.904 395.567 126.363 395.655 126.824 395.64ZM133.026 393.56C131.937 394.12 131.469 394.17 131.293 394.159C131.203 394.159 131.203 394.159 131.1 394.002C130.82 393.607 130.411 393.212 129.492 393.68C126.65 395.122 125.816 394.302 125.264 393.758C125.099 393.582 124.905 393.436 124.69 393.324C127.516 393.355 130.38 393.417 133.202 393.481C133.147 393.502 133.093 393.525 133.04 393.551L133.026 393.56ZM134.684 394.069C134.546 393.839 134.354 393.647 134.124 393.509H134.476L137.313 393.574C135.218 394.853 134.922 394.416 134.684 394.061V394.069ZM139.046 393.7L138.914 393.607L141.356 393.655C139.998 394.369 139.48 393.999 139.046 393.68V393.7ZM148.602 393.82C148.563 393.824 148.523 393.817 148.488 393.799C148.452 393.782 148.422 393.755 148.401 393.722H149.21C149.014 393.786 148.809 393.816 148.602 393.812V393.82ZM153.424 393.932C153.337 393.901 153.284 393.837 153.203 393.674L154.219 393.652H154.832C153.917 394.002 153.553 393.96 153.424 393.924V393.932ZM126.354 381.576C126.465 381.085 126.529 380.584 126.544 380.08C126.544 378.666 127.031 375.973 127.944 373.136C129.392 374.094 130.691 374.475 131.909 374.475C134.023 374.475 135.904 373.332 137.946 372.092C138.461 371.778 138.996 371.454 139.553 371.134L139.374 370.821C140.748 371.591 142.753 372.075 145.814 371.941C146.523 371.926 147.22 371.75 147.852 371.426C148.057 371.318 148.251 371.19 148.432 371.045C149.272 370.373 149.694 369.449 150.044 368.684C150.394 367.92 150.652 367.399 151.069 367.31C151.951 367.116 153.894 368.326 157.008 371.008L157.73 371.622C156.815 375.519 156.974 376.642 157.145 377.826C157.28 378.748 157.425 379.7 157.053 382.228C156.95 382.724 156.972 383.238 157.117 383.723C150.907 383.944 143.957 384.003 142.98 383.967C142.566 383.947 141.58 383.947 140.197 383.947H139.637C135.997 383.947 127.709 383.947 126.088 383.53C126.118 382.869 126.207 382.212 126.354 381.567V381.576ZM128.748 370.913C130.251 367.17 132.021 364.932 133.477 364.932C133.743 364.929 134.008 364.959 134.266 365.022C134.657 365.116 135.012 365.321 135.288 365.613C135.701 366.1 136.041 366.644 136.299 367.228C136.809 368.234 137.419 369.412 138.643 370.342C138.2 370.6 137.769 370.86 137.355 371.112C134.076 373.103 131.822 374.472 128.333 372.011C128.465 371.636 128.602 371.28 128.748 370.905V370.913ZM168.592 368.393C169.275 369.216 170.042 369.967 170.879 370.633C170.454 370.908 170.068 371.238 169.731 371.616C168.701 372.929 166.427 372.971 164.602 373.016H164.128C163.302 373.036 161.233 372.456 159.928 371.941C159.593 371.819 159.27 371.667 158.962 371.487C158.985 371.395 159.01 371.302 159.038 371.207C159.447 369.765 160.354 367.811 163.008 366.022C165.019 364.652 166.458 365.999 168.6 368.379L168.592 368.393ZM172.792 371.381C173.606 371.42 174.41 371.078 175.18 370.367C180.318 365.607 181.228 366.559 183.664 369.079C184.91 370.367 186.464 371.972 188.984 373.355C192.03 375.035 198.101 381.164 197.311 383.415C197.246 383.595 197.13 383.751 196.978 383.866L188.956 383.844C187.066 383.751 184.521 383.715 181.704 383.715C178.887 383.715 175.79 383.751 172.814 383.793H171.618C171.567 383.764 171.513 383.74 171.456 383.723L171.436 383.793H167.897H165.674L158.786 383.771C158.715 383.749 158.644 383.723 158.576 383.692C158.47 383.649 158.375 383.584 158.296 383.502C158.145 383.328 158.12 383.012 158.204 382.416C158.593 379.725 158.436 378.644 158.299 377.686C158.15 376.648 158.019 375.726 158.694 372.663C158.892 372.77 159.114 372.873 159.352 372.974C159.874 373.189 160.408 373.376 160.95 373.534C161.39 373.666 161.832 373.783 162.247 373.878C162.86 374.04 163.487 374.142 164.12 374.184H164.156H164.624C166.693 374.144 169.266 374.094 170.636 372.355C170.944 372.037 171.287 371.755 171.66 371.515C171.803 371.417 171.918 371.333 172.016 371.26C172.271 371.333 172.535 371.369 172.8 371.367L172.792 371.381ZM177.174 392.218L170.969 392.297L168.449 392.328L155.096 392.496C155.328 390.421 155.936 386.268 157.848 384.908H158.615L171.109 384.947H172.817L188.973 384.997L197.322 385.022H197.782C199.994 385.022 200.954 389.273 201.528 391.916L177.174 392.218ZM157.932 393.932C157.887 393.915 157.848 393.854 157.764 393.686C157.764 393.663 157.739 393.638 157.725 393.613L159.158 393.593C158.302 393.977 158.005 393.94 157.929 393.918L157.932 393.932ZM163.098 393.677C161.958 394.517 161.751 394.268 161.418 393.859C161.33 393.76 161.237 393.667 161.138 393.579L163.342 393.551C163.255 393.579 163.173 393.616 163.095 393.663L163.098 393.677ZM164.54 394.153C164.515 394.12 164.484 394.064 164.459 394.024C164.356 393.814 164.188 393.642 163.98 393.534L165.537 393.515C164.907 394.027 164.624 394.122 164.537 394.139L164.54 394.153ZM177.874 393.817C177.746 393.929 177.604 394.023 177.451 394.097C177.382 394.054 177.323 393.996 177.277 393.929C176.717 393.193 175.877 393.68 175.382 393.974C174.617 394.425 174.491 394.394 174.326 394.195C173.531 393.232 172.663 393.786 172.248 394.055C172.016 394.204 171.798 394.335 171.658 394.31C171.568 394.288 171.322 394.167 170.944 393.504L170.904 393.436L178.635 393.341C178.357 393.453 178.099 393.609 177.871 393.803L177.874 393.817ZM181.334 393.439C180.626 393.966 180.377 394.052 179.974 393.669C179.828 393.524 179.653 393.412 179.461 393.338L181.511 393.313L181.334 393.439ZM184.134 393.546C183.982 393.669 183.815 393.774 183.639 393.859C183.576 393.791 183.525 393.714 183.488 393.63C183.427 393.507 183.351 393.393 183.261 393.291L184.526 393.274C184.372 393.347 184.244 393.442 184.12 393.532L184.134 393.546ZM187.97 393.632C187.69 393.856 187.284 394.192 187.097 394.164C187.032 394.164 186.915 394.064 186.778 393.84C186.648 393.616 186.48 393.417 186.282 393.252L188.508 393.224C188.306 393.336 188.127 393.478 187.956 393.618L187.97 393.632ZM191.574 393.196C191.284 393.432 190.97 393.638 190.639 393.812C190.531 393.583 190.382 393.376 190.199 393.201L191.599 393.184L191.574 393.196ZM194.181 393.168C194.063 393.246 193.901 393.361 193.758 393.448C193.756 393.412 193.756 393.377 193.758 393.341C193.755 393.284 193.748 393.227 193.736 393.17H194.214L194.181 393.168ZM197.353 393.182C197.112 393.366 196.552 393.795 196.384 393.758C196.384 393.758 196.281 393.697 196.174 393.338C196.153 393.266 196.124 393.195 196.088 393.128L197.448 393.112L197.353 393.182ZM121.28 390.219C122.05 387.887 123.839 385.14 125.393 384.482C125.888 384.666 126.409 384.771 126.936 384.796C127.793 384.885 129.036 384.952 130.629 385C133.524 385.084 137.069 385.084 139.64 385.084C141.23 385.084 142.49 385.084 142.932 385.104C143.067 385.104 143.431 385.104 143.974 385.104C146.052 385.104 150.767 385.053 155.474 384.91L156.218 384.888C154.779 386.764 154.219 389.928 153.934 392.49C147.55 392.644 140.939 392.49 134.496 392.344C130.041 392.244 125.438 392.137 121.011 392.134C120.964 392.014 120.882 391.46 121.28 390.219ZM123.727 393.436C123.589 393.558 123.422 393.644 123.242 393.686C123.062 393.728 122.875 393.725 122.697 393.677C122.464 393.6 122.253 393.47 122.081 393.296H123.937C123.866 393.335 123.799 393.382 123.738 393.436H123.727Z" fill="black"/>
<path d="M124.819 145.818L125.323 146.098L125.833 146.378C122.084 152.564 119.916 160.849 117.665 170.293C117.506 170.971 117.343 171.651 117.181 172.34L117.629 172.295L117.909 172.264L118.245 172.231L118.614 172.194L119.328 172.124L123.87 171.671L124.5 171.609L125.127 171.545L131.713 170.89C131.657 170.264 131.592 169.64 131.517 169.016C131.458 168.515 131.371 167.616 131.273 166.53C131.256 166.345 131.24 166.152 131.223 165.956C131.206 165.76 131.189 165.575 131.172 165.376C130.85 161.574 130.467 156.299 130.467 154.972L131.612 154.927L132.452 165.424L132.497 166.006L132.542 166.592L132.962 171.912C133.009 172.614 133.046 173.312 133.071 174.017H132.494H132.458C132.385 174.781 132.222 175.533 131.97 176.257C131.29 178.528 130.1 181.6 129.705 181.989L130.484 182.829C130.834 182.507 131.363 181.384 131.884 180.029C132.099 179.469 132.315 178.87 132.516 178.27C132.738 177.615 132.942 176.96 133.113 176.361C133.106 180.76 132.752 185.152 132.054 189.496C132.01 189.776 131.965 190.056 131.917 190.336C131.87 190.616 131.819 190.926 131.766 191.218C130.58 197.869 128.812 204.403 126.482 210.745C126.323 211.182 126.166 211.585 126.02 211.982C125.609 213.06 125.256 213.942 124.993 214.564C124.959 214.645 124.926 214.721 124.898 214.791H185.378C185.376 214.774 185.376 214.757 185.378 214.74C181.894 201.037 179.727 188.98 178.901 178.71C179.087 178.93 179.298 179.126 179.531 179.295C179.701 179.421 179.908 179.487 180.119 179.483C180.169 179.48 180.219 179.474 180.268 179.463C180.357 179.438 180.45 179.418 180.548 179.396C181.108 179.27 181.81 179.116 182.211 178.433C182.343 178.202 182.427 177.947 182.46 177.682C182.74 178.217 182.779 178.242 182.866 178.318C184.171 179.402 185.187 179.763 185.968 179.418C186.162 179.329 186.335 179.201 186.477 179.041C186.619 178.882 186.726 178.695 186.792 178.492C186.953 178.737 187.141 178.965 187.352 179.169C187.973 179.768 188.53 179.945 188.964 179.945C189.261 179.945 189.551 179.864 189.804 179.71C190.868 179.052 191.162 177.26 190.535 175.249C188.192 167.751 183.815 165.777 179.794 165.421C179.604 165.404 179.414 165.39 179.234 165.382C179.055 165.374 178.851 165.365 178.674 165.36C179.083 158.012 180.55 152.44 182.897 149.453C183.737 148.389 186.013 145.813 188.427 143.111C190.667 140.591 192.988 137.984 194.097 136.632C192.977 135.257 191.605 133.591 190.157 131.846L189.765 131.373L189.32 130.928C185.658 126.535 181.687 121.881 179.96 120.198C179.845 120.086 179.736 119.983 179.64 119.899C179.36 120.193 178.887 120.806 178.459 121.36C177.944 122.03 177.339 122.825 176.622 123.662C176.16 124.222 175.659 124.782 175.121 125.342C172.772 127.786 169.714 130.102 166.108 130.309C165.593 130.337 165.058 130.399 164.515 130.48C164.462 130.292 164.411 130.108 164.361 129.92C164.31 129.732 164.26 129.548 164.21 129.36C163.028 124.897 162.496 121.332 163.025 120.817C167.038 116.897 167.413 109.942 165.988 103.687L165.853 103.127C165.806 102.939 165.758 102.752 165.708 102.567C165.896 102.486 166.075 102.386 166.242 102.267C168.762 100.428 168.527 94.5924 168.348 92.5036L164.008 94.3264C163.988 94.1248 163.963 93.9288 163.941 93.7328C163.918 93.5368 163.888 93.338 163.86 93.142C162.74 85.6604 158.596 80.6064 152.478 79.4668C145.864 78.2348 139.066 81.9868 135.958 88.5724C135.224 90.1208 134.493 91.9492 133.648 94.066C129.596 104.202 123.472 119.524 105.751 133.053C105.652 133.127 105.574 133.226 105.525 133.339C105.476 133.453 105.457 133.577 105.471 133.7C105.513 134.296 105.614 135.405 124.819 145.818ZM134.72 94.4776C135.56 92.3804 136.282 90.5576 137.002 89.0484C139.894 82.9276 146.18 79.4472 152.282 80.5812C157.963 81.6396 161.802 86.4612 162.782 93.5872C162.807 93.7832 162.829 93.982 162.852 94.1808C162.874 94.3796 162.894 94.5784 162.91 94.78C162.91 94.892 162.933 95.0012 162.941 95.116C162.905 95.1971 162.856 95.2725 162.798 95.34C162.668 95.492 162.526 95.6334 162.373 95.7628C162.24 95.8785 162.092 95.9989 161.928 96.124C160.08 97.552 156.291 99.7108 155.157 100.027L154.566 100.192L154.771 100.769C154.806 100.862 154.855 100.949 154.916 101.027C155.006 101.167 155.227 101.517 155.297 101.632C155.516 102.242 155.72 102.852 155.916 103.463C155.997 103.709 156.076 103.958 156.151 104.205C156.227 104.451 156.302 104.714 156.375 104.969C159.021 114.103 159.055 123.124 158.089 130.78C158.061 130.987 158.036 131.191 158.008 131.396L157.924 132.012C157.585 134.386 157.156 136.618 156.686 138.664C156.638 138.872 156.588 139.076 156.54 139.28C156.493 139.485 156.442 139.692 156.392 139.894C156.342 140.095 156.314 140.221 156.272 140.381C154.781 146.369 152.636 152.176 149.876 157.696C142.896 154.129 134.216 149.576 126.46 145.393L125.953 145.113L125.449 144.833C115.954 139.678 108.061 135.139 106.756 133.708C124.48 120.056 130.629 104.675 134.72 94.4776ZM164.736 103.365C164.781 103.552 164.828 103.74 164.87 103.925C166.234 109.841 165.926 116.376 162.224 119.986C161.715 120.481 161.272 121.688 162.376 126.669C162.591 127.652 162.838 128.629 163.081 129.553C163.132 129.741 163.179 129.926 163.23 130.113L163.297 130.365C163.137 130.452 163.012 130.59 162.941 130.757C162.898 130.847 162.865 130.941 162.843 131.037C162.818 131.146 162.768 131.418 162.678 131.93C162.527 132.77 162.118 135.01 161.967 135.38C161.127 136.648 159.626 137.69 157.929 138.3C158.383 136.256 158.792 134.042 159.114 131.692C159.139 131.488 159.167 131.284 159.195 131.076L159.27 130.463C160.228 122.489 160.11 113.103 157.156 103.62C157.086 103.393 157.016 103.169 156.941 102.942C156.865 102.715 156.804 102.519 156.734 102.309C156.608 101.937 156.482 101.567 156.344 101.189C156.297 101.072 156.235 100.96 156.16 100.859C157.58 100.201 158.957 99.4527 160.281 98.6188C161.216 98.0392 161.919 97.5548 162.454 97.146C162.782 97.8012 163.095 98.4928 163.389 99.2152C163.86 100.382 164.26 101.576 164.588 102.791C164.638 102.981 164.68 103.172 164.736 103.365ZM179.136 166.552C179.327 166.552 179.52 166.578 179.696 166.594C183.384 166.942 187.256 168.787 189.393 175.616C189.933 177.346 189.58 178.494 189.155 178.758C188.802 178.976 188.315 178.556 188.11 178.368C187.623 177.898 187.214 177.064 186.811 176.109C186.388 173.835 184.927 171.069 183.082 170.038L182.522 171.035C183.849 171.811 184.622 173.732 185.369 175.588C185.484 175.868 185.602 176.148 185.716 176.428C185.779 176.785 185.806 177.147 185.795 177.509C185.772 177.968 185.652 178.301 185.481 178.377C185.397 178.416 184.921 178.545 183.636 177.498C183.518 177.299 183.174 176.63 182.866 176.036C182.452 175.238 181.939 174.247 181.516 173.477C180.791 172.158 180.559 171.783 180.055 171.886C179.978 171.902 179.905 171.932 179.84 171.977C179.775 172.021 179.719 172.078 179.677 172.144C179.618 172.234 179.582 172.337 179.573 172.444C179.567 172.614 179.611 172.782 179.699 172.928C179.764 173.065 179.856 173.244 179.979 173.488C180.399 174.228 180.752 175.004 181.035 175.806C181.407 177.075 181.315 177.618 181.186 177.853C181.057 178.088 180.744 178.17 180.259 178.279L180.097 178.315C180.056 178.284 180.018 178.251 179.982 178.214C179.762 177.993 179.553 177.76 179.358 177.517L179.108 177.215C178.968 177.038 178.828 176.89 178.725 176.75C178.557 174.168 178.478 171.71 178.487 169.375C178.487 168.392 178.515 167.44 178.551 166.51C178.756 166.536 178.96 166.544 179.136 166.552Z" fill="black"/>
<path d="M96.6399 271.443H96.6875C99.8011 271.471 101.702 274.266 102.341 279.748C102.369 279.989 102.442 280.624 102.976 280.815C103.57 281.028 104.096 280.535 104.936 279.726C106.336 278.376 108.658 276.147 112.261 275.993C112.507 276.623 112.826 277.221 113.21 277.777C113.852 278.746 114.314 279.457 114.314 284.122C114.314 284.402 114.314 285.303 114.958 285.681C115.142 285.788 115.352 285.842 115.565 285.838C116.276 285.838 117.189 285.323 118.502 284.581C119.766 283.846 121.076 283.191 122.422 282.621L122.702 282.517C123.61 282.178 124.15 281.957 124.408 281.725L123.643 280.865C123.212 281.092 122.764 281.284 122.302 281.439L121.994 281.557C120.607 282.15 119.258 282.83 117.956 283.592C117.032 284.116 115.887 284.76 115.565 284.712C115.493 284.535 115.464 284.343 115.481 284.152C115.481 279.132 114.921 278.272 114.188 277.175C113.776 276.584 113.45 275.937 113.221 275.254L113.087 274.868H112.678C108.383 274.868 105.636 277.508 104.161 278.928C103.942 279.138 103.693 279.378 103.497 279.546C102.587 271.97 99.3167 270.348 96.7267 270.323H96.6399C91.7147 270.323 85.6079 276.203 85.3391 278.2L86.4759 278.354C86.6355 277.15 92.1291 271.443 96.6399 271.443Z" fill="black"/>
<path d="M82.9199 281.159L84.0399 281.411C84.6811 278.558 89.1947 267.674 93.1791 258.073C97.2503 248.256 99.2691 243.323 99.7423 241.553C101.571 241.716 104.385 242.738 107.112 243.732C110.24 244.868 113.462 246.036 115.753 246.159C115.946 246.159 116.136 246.176 116.313 246.159L116.276 245.011C116.1 245.011 115.91 245.011 115.716 245.011C113.619 244.877 110.514 243.746 107.504 242.651C104.298 241.486 101.268 240.383 99.2775 240.383H98.6531L98.7035 240.985C98.6167 241.945 95.1643 250.27 92.1151 257.62C88.1139 267.277 83.5779 278.208 82.9199 281.159Z" fill="black"/>
<path d="M103.735 251.135C100.655 251.135 98.3032 252.706 97.2588 255.447C96.024 258.7 96.9312 262.794 99.3756 264.967C100.533 266.004 102.036 266.572 103.59 266.56C104.824 266.56 106.292 266.232 108 265.342C111.284 263.631 112.939 260.218 112.113 256.855C111.438 254.086 108.882 251.135 103.735 251.135Z" fill="black"/>
<path d="M184.791 18.1197L184.261 19.1383L194.39 24.4041L194.919 23.3855L184.791 18.1197Z" fill="black"/>
<path d="M192.273 27.4656L182.348 29.289L182.555 30.4181L192.48 28.5947L192.273 27.4656Z" fill="black"/>
<path d="M196.42 30.8176L194.083 38.7341L195.184 39.0592L197.521 31.1426L196.42 30.8176Z" fill="black"/>
<path d="M199.713 10.1583L198.572 20.151L199.713 20.2812L200.853 10.2884L199.713 10.1583Z" fill="black"/>
</svg>
