<svg width="65" height="93" viewBox="0 0 65 93" fill="none" xmlns="http://www.w3.org/2000/svg">
<path d="M31.696 82.1198H42.832C49.0613 82.1198 52.176 78.9625 52.176 72.6478V31.0478C52.176 24.7331 49.0613 21.5758 42.832 21.5758H31.696C25.552 21.5758 22.48 24.7331 22.48 31.0478V72.6478C22.48 78.9625 25.552 82.1198 31.696 82.1198ZM44.752 92.9998H29.904C23.5893 92.9998 18.6826 91.2505 15.184 87.7518C11.7706 84.2531 10.064 79.3891 10.064 73.1598V30.5358C10.064 24.2211 11.7706 19.3571 15.184 15.9438C18.6826 12.4451 23.5893 10.6958 29.904 10.6958H44.752C51.0666 10.6958 55.9733 12.4451 59.472 15.9438C62.9706 19.3571 64.72 24.2211 64.72 30.5358V73.1598C64.72 79.3891 62.9706 84.2531 59.472 87.7518C55.9733 91.2505 51.0666 92.9998 44.752 92.9998Z" fill="#F03E3E"/>
<path d="M21.696 72.1198H32.832C39.0613 72.1198 42.176 68.9625 42.176 62.6478V21.0478C42.176 14.7331 39.0613 11.5758 32.832 11.5758H21.696C15.552 11.5758 12.48 14.7331 12.48 21.0478V62.6478C12.48 68.9625 15.552 72.1198 21.696 72.1198ZM34.752 82.9998H19.904C13.5893 82.9998 8.68263 81.2505 5.18397 77.7518C1.77063 74.2531 0.0639648 69.3891 0.0639648 63.1598V20.5358C0.0639648 14.2211 1.77063 9.35713 5.18397 5.94379C8.68263 2.44513 13.5893 0.695801 19.904 0.695801H34.752C41.0666 0.695801 45.9733 2.44513 49.472 5.94379C52.9706 9.35713 54.72 14.2211 54.72 20.5358V63.1598C54.72 69.3891 52.9706 74.2531 49.472 77.7518C45.9733 81.2505 41.0666 82.9998 34.752 82.9998Z" fill="#3DF0CF"/>
<path d="M26.696 77.1198H37.832C44.0613 77.1198 47.176 73.9625 47.176 67.6478V26.0478C47.176 19.7331 44.0613 16.5758 37.832 16.5758H26.696C20.552 16.5758 17.48 19.7331 17.48 26.0478V67.6478C17.48 73.9625 20.552 77.1198 26.696 77.1198ZM39.752 87.9998H24.904C18.5893 87.9998 13.6826 86.2505 10.184 82.7518C6.77063 79.2531 5.06396 74.3891 5.06396 68.1598V25.5358C5.06396 19.2211 6.77063 14.3571 10.184 10.9438C13.6826 7.44513 18.5893 5.6958 24.904 5.6958H39.752C46.0666 5.6958 50.9733 7.44513 54.472 10.9438C57.9706 14.3571 59.72 19.2211 59.72 25.5358V68.1598C59.72 74.3891 57.9706 79.2531 54.472 82.7518C50.9733 86.2505 46.0666 87.9998 39.752 87.9998Z" fill="black" fill-opacity="0.9"/>
</svg>
