<svg width="216" height="162" viewBox="0 0 216 162" fill="none" xmlns="http://www.w3.org/2000/svg">
<path d="M141.268 66.8227L141.369 66.9312L141.477 67.032C144.478 69.8177 146.534 75.204 146.534 84.4598V153.455V157.455H150.534L208 157.455H212V153.455V81.7452C212 57.193 205.3 37.7759 191.338 24.1401C177.407 10.5353 157.875 4 133.339 4H82.6606C58.1248 4 38.593 10.5353 24.6623 24.1401C10.6999 37.7759 4 57.193 4 81.7452V153.455V157.455H8L65.4661 157.455H69.4661V153.455V84.4598C69.4661 75.1404 71.3983 69.7072 74.1766 66.9293L74.229 66.8769L74.2794 66.8227C77.0656 63.8226 82.4531 61.7667 91.7104 61.7667H123.837C133.094 61.7667 138.482 63.8226 141.268 66.8227Z" stroke="#CDCDCD" stroke-width="8"/>
</svg>
