<svg id="Layer_1" data-name="Layer 1" xmlns="http://www.w3.org/2000/svg" viewBox="0 0 500 70"><defs><style>.cls-1{fill:#cecdcd;}</style></defs><title>onbegrensd-BG#CDCDCD</title><path class="cls-1" d="M334.87,483.94h-8.82a.88.88,0,0,0-1,1v15.48a.88.88,0,0,0,1,1h8.82a6.19,6.19,0,0,0,4.23-1.21,5,5,0,0,0,1.35-3.92v-7a5.32,5.32,0,0,0-1.35-4.05A6,6,0,0,0,334.87,483.94ZM183.94,497.53h9.18a6.19,6.19,0,0,0,4.23-1.21,5.17,5.17,0,0,0,1.35-4V488.8a5.29,5.29,0,0,0-1.3-4,6,6,0,0,0-4.19-1.22h-9.27a.88.88,0,0,0-1,1v12A.88.88,0,0,0,183.94,497.53Zm9.9,9.27h-9.9a.88.88,0,0,0-1,1v4.94H199.6v-.8q0-2.79-1.35-4A6.69,6.69,0,0,0,193.84,506.8ZM91.33,483.94H84.94c-1.92,0-3.27.41-4,1.22s-1.17,2.17-1.17,4.09v23.48H96.64V489.25c0-1.92-.4-3.28-1.21-4.09S93.25,483.94,91.33,483.94Zm38.79,12.69v16.1h9l-8.66-16.1Zm399.24-12.69h-9.82a.87.87,0,0,0-1,1v27.8h16.11V489.25c0-1.92-.41-3.28-1.22-4.09S531.28,483.94,529.36,483.94ZM326.14,510.58q-1.08,0-1.08,1v1.16h8.1l-1-2.15ZM58.07,442.73v70H68.29v-24q0-7.11,3.87-10.89t11-3.78H93.22q7.11,0,11,3.78t3.87,10.89v24h10.8v-36.8a1.67,1.67,0,0,1,1.89-1.89h6.75A2.54,2.54,0,0,1,130,475.3l18.18,34.11h.36V475.93a1.67,1.67,0,0,1,1.89-1.89h7.47a1.67,1.67,0,0,1,1.89,1.89v36.8h11.7v-36.8a1.67,1.67,0,0,1,1.89-1.89H195q7.11,0,11,3.78t3.87,10.8v3.69q0,7.65-7.11,9.9a9.37,9.37,0,0,1,5.76,2.93q2.16,2.39,2.16,6.79v.8h10.8v-36.8a1.67,1.67,0,0,1,1.89-1.89h29.43q1.8,0,1.8,1.89v6.12q0,1.89-1.8,1.89H234q-1.08,0-1.08,1v11.7q0,1,1.08,1h15.39a1.67,1.67,0,0,1,1.89,1.89v6.12a1.67,1.67,0,0,1-1.89,1.89H234q-1.08,0-1.08,1v4.22h30.78v-24q0-7.11,3.87-10.89t11-3.78h9.54q7,0,10.89,3.83t3.87,10.84v2.7q0,2-1.89,2h-7.65q-1.89,0-1.89-2v-2.16c0-1.92-.39-3.28-1.17-4.09s-2.13-1.22-4.05-1.22h-5.85a5.53,5.53,0,0,0-4,1.22c-.81.81-1.21,2.17-1.21,4.09v23.48H291.4V511a.88.88,0,0,0-1-1H285a1.67,1.67,0,0,1-1.89-1.89V502a1.67,1.67,0,0,1,1.89-1.89h15.75a1.83,1.83,0,0,1,2.07,2.07v10.52h10.8v-36.8a1.67,1.67,0,0,1,1.89-1.89h21.42q7,0,11,3.87t4,10.89v7q0,10.17-8,13.5v.36l1.46,3.05h17.53v-36.8a1.67,1.67,0,0,1,1.89-1.89h29.43q1.8,0,1.8,1.89v6.12q0,1.89-1.8,1.89H375.37q-1.08,0-1.08,1v11.7q0,1,1.08,1h15.39a1.67,1.67,0,0,1,1.89,1.89v6.12a1.67,1.67,0,0,1-1.89,1.89H375.37q-1.08,0-1.08,1v4.22H406v-36.8a1.67,1.67,0,0,1,1.89-1.89h6.75a2.54,2.54,0,0,1,2.52,1.26l18.18,34.11h.36V475.93a1.67,1.67,0,0,1,1.89-1.89H445a1.67,1.67,0,0,1,1.89,1.89v36.8h38.21a4.51,4.51,0,0,0-1.81-2.19,11.13,11.13,0,0,0-5.26-1.67,56.91,56.91,0,0,1-6.8-1,43.88,43.88,0,0,1-6.79-2,10.67,10.67,0,0,1-5.27-4.77,17.69,17.69,0,0,1-2.11-9.14V488.8q0-7,4-10.89T472,474h9q7.11,0,11.07,3.87t4,10.89v1.71a1.67,1.67,0,0,1-1.89,1.89h-7.65a1.67,1.67,0,0,1-1.89-1.89V490q0-3.51-1.35-4.77t-4.95-1.26h-3.51q-3.69,0-5,1.4t-1.3,5.44v1.71q0,4.23,7.38,4.86a45.69,45.69,0,0,1,13.59,3.06,11.53,11.53,0,0,1,5.26,4.82,15.8,15.8,0,0,1,2.08,7.5h10.3v-36.8A1.67,1.67,0,0,1,509,474h22.23q7,0,10.93,3.83t3.92,10.84v24h12v-70Zm359.15,53.9v16.1h9l-8.65-16.1Z" transform="translate(-58.07 -442.73)"/></svg>