<svg width="600" height="437" viewBox="0 0 600 437" fill="none" xmlns="http://www.w3.org/2000/svg">
<path d="M408.597 168.302C421.267 180.065 427.602 200.424 427.602 229.379V436.364L600 436.364V221.236C600 149.753 580.543 95.0092 541.629 57.0055C502.715 19.0018 447.511 0 376.018 0H223.982C152.489 0 97.2851 19.0018 58.371 57.0055C19.457 95.0092 0 149.753 0 221.236V436.364L172.398 436.364V229.379C172.398 200.424 178.281 180.065 190.045 168.302C201.81 155.634 222.172 149.3 251.131 149.3H347.511C376.471 149.3 396.833 155.634 408.597 168.302Z" fill="#CDCDCD"/>
</svg>
